<svg width="120" height="39" viewBox="0 0 120 39" fill="none" xmlns="http://www.w3.org/2000/svg">
<path d="M55.8281 33C55.8281 33.8542 55.6719 34.5885 55.3594 35.2031C55.0469 35.8151 54.6185 36.2865 54.0742 36.6172C53.5326 36.9453 52.9167 37.1094 52.2266 37.1094C51.5339 37.1094 50.9154 36.9453 50.3711 36.6172C49.8294 36.2865 49.4023 35.8138 49.0898 35.1992C48.7773 34.5846 48.6211 33.8516 48.6211 33C48.6211 32.1458 48.7773 31.4128 49.0898 30.8008C49.4023 30.1862 49.8294 29.7148 50.3711 29.3867C50.9154 29.056 51.5339 28.8906 52.2266 28.8906C52.9167 28.8906 53.5326 29.056 54.0742 29.3867C54.6185 29.7148 55.0469 30.1862 55.3594 30.8008C55.6719 31.4128 55.8281 32.1458 55.8281 33ZM54.6328 33C54.6328 32.349 54.5273 31.8008 54.3164 31.3555C54.1081 30.9076 53.8216 30.569 53.457 30.3398C53.0951 30.1081 52.6849 29.9922 52.2266 29.9922C51.7656 29.9922 51.3542 30.1081 50.9922 30.3398C50.6302 30.569 50.3438 30.9076 50.1328 31.3555C49.9245 31.8008 49.8203 32.349 49.8203 33C49.8203 33.651 49.9245 34.2005 50.1328 34.6484C50.3438 35.0937 50.6302 35.4323 50.9922 35.6641C51.3542 35.8932 51.7656 36.0078 52.2266 36.0078C52.6849 36.0078 53.0951 35.8932 53.457 35.6641C53.8216 35.4323 54.1081 35.0937 54.3164 34.6484C54.5273 34.2005 54.6328 33.651 54.6328 33ZM57.2393 37V31H58.3682V31.9531H58.4307C58.54 31.6302 58.7327 31.3763 59.0088 31.1914C59.2874 31.0039 59.6025 30.9102 59.9541 30.9102C60.027 30.9102 60.113 30.9128 60.2119 30.918C60.3135 30.9232 60.3929 30.9297 60.4502 30.9375V32.0547C60.4033 32.0417 60.32 32.0273 60.2002 32.0117C60.0804 31.9935 59.9606 31.9844 59.8408 31.9844C59.5648 31.9844 59.3187 32.043 59.1025 32.1602C58.889 32.2747 58.7197 32.4349 58.5947 32.6406C58.4697 32.8437 58.4072 33.0755 58.4072 33.3359V37H57.2393ZM63.4922 37.1172C63.0078 37.1172 62.5755 36.9935 62.1953 36.7461C61.8177 36.4961 61.5208 36.1406 61.3047 35.6797C61.0911 35.2161 60.9844 34.6602 60.9844 34.0117C60.9844 33.3633 61.0924 32.8086 61.3086 32.3477C61.5273 31.8867 61.8268 31.5339 62.207 31.2891C62.5872 31.0443 63.0182 30.9219 63.5 30.9219C63.8724 30.9219 64.1719 30.9844 64.3984 31.1094C64.6276 31.2318 64.8047 31.375 64.9297 31.5391C65.0573 31.7031 65.1563 31.8477 65.2266 31.9727H65.2969V29H66.4648V37H65.3242V36.0664H65.2266C65.1563 36.194 65.0547 36.3398 64.9219 36.5039C64.7917 36.668 64.612 36.8112 64.3828 36.9336C64.1536 37.056 63.8568 37.1172 63.4922 37.1172ZM63.75 36.1211C64.0859 36.1211 64.3698 36.0326 64.6016 35.8555C64.8359 35.6758 65.013 35.4271 65.1328 35.1094C65.2552 34.7917 65.3164 34.4219 65.3164 34C65.3164 33.5833 65.2565 33.2187 65.1367 32.9062C65.0169 32.5937 64.8411 32.3503 64.6094 32.1758C64.3776 32.0013 64.0911 31.9141 63.75 31.9141C63.3984 31.9141 63.1055 32.0052 62.8711 32.1875C62.6367 32.3698 62.4596 32.6185 62.3398 32.9336C62.2227 33.2487 62.1641 33.6042 62.1641 34C62.1641 34.401 62.224 34.7617 62.3438 35.082C62.4635 35.4023 62.6406 35.6562 62.875 35.8437C63.112 36.0286 63.4036 36.1211 63.75 36.1211ZM70.7178 37.1211C70.1266 37.1211 69.6175 36.9948 69.1904 36.7422C68.766 36.487 68.4378 36.1289 68.2061 35.668C67.9769 35.2044 67.8623 34.6615 67.8623 34.0391C67.8623 33.4245 67.9769 32.8828 68.2061 32.4141C68.4378 31.9453 68.7607 31.5794 69.1748 31.3164C69.5915 31.0534 70.0785 30.9219 70.6357 30.9219C70.9743 30.9219 71.3024 30.9779 71.6201 31.0898C71.9378 31.2018 72.223 31.3776 72.4756 31.6172C72.7282 31.8568 72.9274 32.168 73.0732 32.5508C73.2191 32.931 73.292 33.3932 73.292 33.9375V34.3516H68.5225V33.4766H72.1475C72.1475 33.1693 72.085 32.8971 71.96 32.6602C71.835 32.4206 71.6592 32.2318 71.4326 32.0937C71.2087 31.9557 70.9456 31.8867 70.6436 31.8867C70.3154 31.8867 70.029 31.9674 69.7842 32.1289C69.542 32.2878 69.3545 32.4961 69.2217 32.7539C69.0915 33.0091 69.0264 33.2865 69.0264 33.5859V34.2695C69.0264 34.6706 69.0967 35.0117 69.2373 35.293C69.3805 35.5742 69.5798 35.7891 69.835 35.9375C70.0902 36.0833 70.3883 36.1562 70.7295 36.1562C70.9508 36.1562 71.1527 36.125 71.335 36.0625C71.5173 35.9974 71.6748 35.901 71.8076 35.7734C71.9404 35.6458 72.042 35.4883 72.1123 35.3008L73.2178 35.5C73.1292 35.8255 72.9704 36.1107 72.7412 36.3555C72.5146 36.5977 72.2295 36.7865 71.8857 36.9219C71.5446 37.0547 71.1553 37.1211 70.7178 37.1211ZM74.5879 37V31H75.7168V31.9531H75.7793C75.8887 31.6302 76.0814 31.3763 76.3574 31.1914C76.6361 31.0039 76.9512 30.9102 77.3027 30.9102C77.3757 30.9102 77.4616 30.9128 77.5605 30.918C77.6621 30.9232 77.7415 30.9297 77.7988 30.9375V32.0547C77.752 32.0417 77.6686 32.0273 77.5488 32.0117C77.429 31.9935 77.3092 31.9844 77.1895 31.9844C76.9134 31.9844 76.6673 32.043 76.4512 32.1602C76.2376 32.2747 76.0684 32.4349 75.9434 32.6406C75.8184 32.8437 75.7559 33.0755 75.7559 33.3359V37H74.5879ZM88.459 31.6016H87.2402C87.1934 31.3411 87.1061 31.112 86.9785 30.9141C86.8509 30.7161 86.6947 30.5482 86.5098 30.4102C86.3249 30.2721 86.1178 30.168 85.8887 30.0977C85.6621 30.0273 85.4212 29.9922 85.166 29.9922C84.7051 29.9922 84.2923 30.1081 83.9277 30.3398C83.5658 30.5716 83.2793 30.9115 83.0684 31.3594C82.86 31.8073 82.7559 32.3542 82.7559 33C82.7559 33.651 82.86 34.2005 83.0684 34.6484C83.2793 35.0964 83.5671 35.4349 83.9316 35.6641C84.2962 35.8932 84.7064 36.0078 85.1621 36.0078C85.4147 36.0078 85.6543 35.974 85.8809 35.9062C86.11 35.8359 86.3171 35.7331 86.502 35.5977C86.6868 35.4622 86.8431 35.2969 86.9707 35.1016C87.1009 34.9036 87.1908 34.6771 87.2402 34.4219L88.459 34.4258C88.3939 34.819 88.2676 35.181 88.0801 35.5117C87.8952 35.8398 87.6569 36.1237 87.3652 36.3633C87.0762 36.6003 86.7454 36.7839 86.373 36.9141C86.0007 37.0443 85.5944 37.1094 85.1543 37.1094C84.4616 37.1094 83.8444 36.9453 83.3027 36.6172C82.7611 36.2865 82.334 35.8138 82.0215 35.1992C81.7116 34.5846 81.5566 33.8516 81.5566 33C81.5566 32.1458 81.7129 31.4128 82.0254 30.8008C82.3379 30.1862 82.765 29.7148 83.3066 29.3867C83.8483 29.056 84.4642 28.8906 85.1543 28.8906C85.5788 28.8906 85.9746 28.9518 86.3418 29.0742C86.7116 29.194 87.0436 29.3711 87.3379 29.6055C87.6322 29.8372 87.8757 30.1211 88.0684 30.457C88.2611 30.7904 88.3913 31.1719 88.459 31.6016ZM92.3955 37.1211C91.8044 37.1211 91.2952 36.9948 90.8682 36.7422C90.4437 36.487 90.1156 36.1289 89.8838 35.668C89.6546 35.2044 89.54 34.6615 89.54 34.0391C89.54 33.4245 89.6546 32.8828 89.8838 32.4141C90.1156 31.9453 90.4385 31.5794 90.8525 31.3164C91.2692 31.0534 91.7562 30.9219 92.3135 30.9219C92.652 30.9219 92.9801 30.9779 93.2979 31.0898C93.6156 31.2018 93.9007 31.3776 94.1533 31.6172C94.4059 31.8568 94.6051 32.168 94.751 32.5508C94.8968 32.931 94.9697 33.3932 94.9697 33.9375V34.3516H90.2002V33.4766H93.8252C93.8252 33.1693 93.7627 32.8971 93.6377 32.6602C93.5127 32.4206 93.3369 32.2318 93.1104 32.0937C92.8864 31.9557 92.6234 31.8867 92.3213 31.8867C91.9932 31.8867 91.7067 31.9674 91.4619 32.1289C91.2197 32.2878 91.0322 32.4961 90.8994 32.7539C90.7692 33.0091 90.7041 33.2865 90.7041 33.5859V34.2695C90.7041 34.6706 90.7744 35.0117 90.915 35.293C91.0583 35.5742 91.2575 35.7891 91.5127 35.9375C91.7679 36.0833 92.0661 36.1562 92.4072 36.1562C92.6286 36.1562 92.8304 36.125 93.0127 36.0625C93.195 35.9974 93.3525 35.901 93.4854 35.7734C93.6182 35.6458 93.7197 35.4883 93.79 35.3008L94.8955 35.5C94.807 35.8255 94.6481 36.1107 94.4189 36.3555C94.1924 36.5977 93.9072 36.7865 93.5635 36.9219C93.2223 37.0547 92.833 37.1211 92.3955 37.1211ZM97.4336 33.4375V37H96.2656V31H97.3867V31.9766H97.4609C97.599 31.6589 97.8151 31.4036 98.1094 31.2109C98.4063 31.0182 98.7799 30.9219 99.2305 30.9219C99.6393 30.9219 99.9974 31.0078 100.305 31.1797C100.612 31.349 100.85 31.6016 101.02 31.9375C101.189 32.2734 101.273 32.6888 101.273 33.1836V37H100.105V33.3242C100.105 32.8893 99.9922 32.5495 99.7656 32.3047C99.5391 32.0573 99.2279 31.9336 98.832 31.9336C98.5612 31.9336 98.3203 31.9922 98.1094 32.1094C97.901 32.2266 97.7357 32.3984 97.6133 32.625C97.4935 32.849 97.4336 33.1198 97.4336 33.4375ZM105.641 31V31.9375H102.363V31H105.641ZM103.242 29.5625H104.41V35.2383C104.41 35.4648 104.444 35.6354 104.512 35.75C104.579 35.862 104.667 35.9388 104.773 35.9805C104.883 36.0195 105.001 36.0391 105.129 36.0391C105.223 36.0391 105.305 36.0326 105.375 36.0195C105.445 36.0065 105.5 35.9961 105.539 35.9883L105.75 36.9531C105.682 36.9792 105.586 37.0052 105.461 37.0313C105.336 37.0599 105.18 37.0755 104.992 37.0781C104.685 37.0833 104.398 37.0286 104.133 36.9141C103.867 36.7995 103.652 36.6224 103.488 36.3828C103.324 36.1432 103.242 35.8424 103.242 35.4805V29.5625ZM106.933 37V31H108.062V31.9531H108.124C108.233 31.6302 108.426 31.3763 108.702 31.1914C108.981 31.0039 109.296 30.9102 109.647 30.9102C109.72 30.9102 109.806 30.9128 109.905 30.918C110.007 30.9232 110.086 30.9297 110.144 30.9375V32.0547C110.097 32.0417 110.013 32.0273 109.894 32.0117C109.774 31.9935 109.654 31.9844 109.534 31.9844C109.258 31.9844 109.012 32.043 108.796 32.1602C108.582 32.2747 108.413 32.4349 108.288 32.6406C108.163 32.8437 108.101 33.0755 108.101 33.3359V37H106.933ZM112.847 37.1328C112.466 37.1328 112.123 37.0625 111.815 36.9219C111.508 36.7786 111.265 36.5716 111.085 36.3008C110.908 36.0299 110.819 35.6979 110.819 35.3047C110.819 34.9661 110.884 34.6875 111.015 34.4687C111.145 34.25 111.321 34.0768 111.542 33.9492C111.763 33.8216 112.011 33.7253 112.284 33.6602C112.558 33.5951 112.836 33.5456 113.12 33.5117C113.479 33.4701 113.771 33.4362 113.995 33.4102C114.219 33.3815 114.382 33.3359 114.483 33.2734C114.585 33.2109 114.636 33.1094 114.636 32.9687V32.9414C114.636 32.6003 114.539 32.3359 114.347 32.1484C114.157 31.9609 113.873 31.8672 113.495 31.8672C113.102 31.8672 112.792 31.9544 112.565 32.1289C112.341 32.3008 112.187 32.4922 112.101 32.7031L111.003 32.4531C111.133 32.0885 111.323 31.7943 111.573 31.5703C111.826 31.3437 112.116 31.1797 112.444 31.0781C112.772 30.974 113.118 30.9219 113.479 30.9219C113.719 30.9219 113.973 30.9505 114.241 31.0078C114.512 31.0625 114.765 31.1641 114.999 31.3125C115.236 31.4609 115.43 31.6732 115.581 31.9492C115.732 32.2227 115.808 32.5781 115.808 33.0156V37H114.667V36.1797H114.62C114.545 36.3307 114.431 36.4792 114.28 36.625C114.129 36.7708 113.935 36.8919 113.698 36.9883C113.461 37.0846 113.177 37.1328 112.847 37.1328ZM113.101 36.1953C113.424 36.1953 113.7 36.1315 113.929 36.0039C114.16 35.8763 114.336 35.7096 114.456 35.5039C114.578 35.2956 114.64 35.0729 114.64 34.8359V34.0625C114.598 34.1042 114.517 34.1432 114.397 34.1797C114.28 34.2135 114.146 34.2435 113.995 34.2695C113.844 34.293 113.697 34.3151 113.554 34.3359C113.41 34.3542 113.291 34.3698 113.194 34.3828C112.968 34.4115 112.761 34.4596 112.573 34.5273C112.388 34.5951 112.24 34.6927 112.128 34.8203C112.019 34.9453 111.964 35.112 111.964 35.3203C111.964 35.6094 112.071 35.8281 112.284 35.9766C112.498 36.1224 112.77 36.1953 113.101 36.1953ZM118.531 29V37H117.363V29H118.531Z" fill="#85A7CD"/>
<path d="M60.8097 11.4545C60.8097 12.8523 60.554 14.054 60.0426 15.0597C59.5313 16.0611 58.8303 16.8324 57.9396 17.3736C57.0533 17.9105 56.0455 18.179 54.9162 18.179C53.7827 18.179 52.7706 17.9105 51.88 17.3736C50.9936 16.8324 50.2947 16.0589 49.7834 15.0533C49.272 14.0476 49.0163 12.848 49.0163 11.4545C49.0163 10.0568 49.272 8.85724 49.7834 7.85582C50.2947 6.85014 50.9936 6.07883 51.88 5.5419C52.7706 5.00071 53.7827 4.73011 54.9162 4.73011C56.0455 4.73011 57.0533 5.00071 57.9396 5.5419C58.8303 6.07883 59.5313 6.85014 60.0426 7.85582C60.554 8.85724 60.8097 10.0568 60.8097 11.4545ZM58.8537 11.4545C58.8537 10.3892 58.6811 9.49219 58.3359 8.76349C57.995 8.03054 57.5263 7.47656 56.9297 7.10156C56.3374 6.7223 55.6662 6.53267 54.9162 6.53267C54.1619 6.53267 53.4886 6.7223 52.8963 7.10156C52.304 7.47656 51.8352 8.03054 51.4901 8.76349C51.1491 9.49219 50.9787 10.3892 50.9787 11.4545C50.9787 12.5199 51.1491 13.419 51.4901 14.152C51.8352 14.8807 52.304 15.4347 52.8963 15.8139C53.4886 16.1889 54.1619 16.3764 54.9162 16.3764C55.6662 16.3764 56.3374 16.1889 56.9297 15.8139C57.5263 15.4347 57.995 14.8807 58.3359 14.152C58.6811 13.419 58.8537 12.5199 58.8537 11.4545ZM74.1451 9.16619H72.1507C72.074 8.74006 71.9313 8.36506 71.7225 8.04119C71.5137 7.71733 71.258 7.44247 70.9554 7.21662C70.6529 6.99077 70.3141 6.82031 69.9391 6.70526C69.5684 6.5902 69.1742 6.53267 68.7566 6.53267C68.0023 6.53267 67.3269 6.7223 66.7303 7.10156C66.138 7.48082 65.6692 8.03693 65.324 8.76989C64.9831 9.50284 64.8127 10.3977 64.8127 11.4545C64.8127 12.5199 64.9831 13.419 65.324 14.152C65.6692 14.8849 66.1401 15.4389 66.7367 15.8139C67.3333 16.1889 68.0044 16.3764 68.7502 16.3764C69.1635 16.3764 69.5556 16.321 69.9263 16.2102C70.3013 16.0952 70.6401 15.9268 70.9426 15.7053C71.2452 15.4837 71.5009 15.2131 71.7097 14.8935C71.9228 14.5696 72.0698 14.1989 72.1507 13.7812L74.1451 13.7876C74.0385 14.4311 73.8319 15.0234 73.525 15.5646C73.2225 16.1016 72.8326 16.5661 72.3553 16.9581C71.8823 17.3459 71.3411 17.6463 70.7317 17.8594C70.1223 18.0724 69.4576 18.179 68.7374 18.179C67.6039 18.179 66.5939 17.9105 65.7076 17.3736C64.8212 16.8324 64.1223 16.0589 63.611 15.0533C63.1039 14.0476 62.8503 12.848 62.8503 11.4545C62.8503 10.0568 63.106 8.85724 63.6174 7.85582C64.1287 6.85014 64.8276 6.07883 65.714 5.5419C66.6003 5.00071 67.6081 4.73011 68.7374 4.73011C69.432 4.73011 70.0797 4.83026 70.6806 5.03054C71.2857 5.22656 71.829 5.51633 72.3105 5.89986C72.7921 6.27912 73.1905 6.74361 73.5059 7.29332C73.8212 7.83878 74.0343 8.46307 74.1451 9.16619Z" fill="white"/>
<path d="M76.4403 6.67188V5.72727H82.0689V6.67188H79.7997V13H78.706V6.67188H76.4403ZM83.3127 5.72727H84.6444L86.9597 11.3807H87.0449L89.3603 5.72727H90.6919V13H89.6479V7.73722H89.5804L87.4355 12.9893H86.5691L84.4242 7.73366H84.3567V13H83.3127V5.72727Z" fill="white"/>
<rect y="4" width="34" height="34" fill="#157CB0"/>
<path d="M16.3864 21.1818C16.3864 22.4242 16.1591 23.4924 15.7045 24.3864C15.25 25.2765 14.6269 25.9621 13.8352 26.4432C13.0473 26.9205 12.1515 27.1591 11.1477 27.1591C10.1402 27.1591 9.24053 26.9205 8.44886 26.4432C7.66098 25.9621 7.03977 25.2746 6.58523 24.3807C6.13068 23.4867 5.90341 22.4205 5.90341 21.1818C5.90341 19.9394 6.13068 18.8731 6.58523 17.983C7.03977 17.089 7.66098 16.4034 8.44886 15.9261C9.24053 15.4451 10.1402 15.2045 11.1477 15.2045C12.1515 15.2045 13.0473 15.4451 13.8352 15.9261C14.6269 16.4034 15.25 17.089 15.7045 17.983C16.1591 18.8731 16.3864 19.9394 16.3864 21.1818ZM14.6477 21.1818C14.6477 20.2348 14.4943 19.4375 14.1875 18.7898C13.8845 18.1383 13.4678 17.6458 12.9375 17.3125C12.411 16.9754 11.8144 16.8068 11.1477 16.8068C10.4773 16.8068 9.87879 16.9754 9.35227 17.3125C8.82576 17.6458 8.40909 18.1383 8.10227 18.7898C7.79924 19.4375 7.64773 20.2348 7.64773 21.1818C7.64773 22.1288 7.79924 22.928 8.10227 23.5795C8.40909 24.2273 8.82576 24.7197 9.35227 25.0568C9.87879 25.3902 10.4773 25.5568 11.1477 25.5568C11.8144 25.5568 12.411 25.3902 12.9375 25.0568C13.4678 24.7197 13.8845 24.2273 14.1875 23.5795C14.4943 22.928 14.6477 22.1288 14.6477 21.1818ZM28.2401 19.1477H26.4673C26.3991 18.7689 26.2723 18.4356 26.0866 18.1477C25.901 17.8598 25.6738 17.6155 25.4048 17.4148C25.1359 17.214 24.8348 17.0625 24.5014 16.9602C24.1719 16.858 23.8215 16.8068 23.4503 16.8068C22.7798 16.8068 22.1795 16.9754 21.6491 17.3125C21.1226 17.6496 20.706 18.1439 20.3991 18.7955C20.0961 19.447 19.9446 20.2424 19.9446 21.1818C19.9446 22.1288 20.0961 22.928 20.3991 23.5795C20.706 24.2311 21.1245 24.7235 21.6548 25.0568C22.1851 25.3902 22.7817 25.5568 23.4446 25.5568C23.812 25.5568 24.1605 25.5076 24.4901 25.4091C24.8234 25.3068 25.1245 25.1572 25.3935 24.9602C25.6624 24.7633 25.8897 24.5227 26.0753 24.2386C26.2647 23.9508 26.3954 23.6212 26.4673 23.25L28.2401 23.2557C28.1454 23.8277 27.9616 24.3542 27.6889 24.8352C27.42 25.3125 27.0734 25.7254 26.6491 26.0739C26.2287 26.4186 25.7476 26.6856 25.206 26.875C24.6643 27.0644 24.0734 27.1591 23.4332 27.1591C22.4257 27.1591 21.5279 26.9205 20.7401 26.4432C19.9522 25.9621 19.331 25.2746 18.8764 24.3807C18.4257 23.4867 18.2003 22.4205 18.2003 21.1818C18.2003 19.9394 18.4276 18.8731 18.8821 17.983C19.3366 17.089 19.9579 16.4034 20.7457 15.9261C21.5336 15.4451 22.4295 15.2045 23.4332 15.2045C24.0507 15.2045 24.6264 15.2936 25.1605 15.4716C25.6984 15.6458 26.1813 15.9034 26.6094 16.2443C27.0374 16.5814 27.3916 16.9943 27.6719 17.483C27.9522 17.9678 28.1416 18.5227 28.2401 19.1477Z" fill="white"/>
</svg>
